<?xml version="1.0" encoding="UTF-8"?>
<svg xmlns="http://www.w3.org/2000/svg" viewBox="0 0 301.38 232.67">
  <defs>
    <style>
      .cls-1 {
        fill: #2f6fae;
      }

      .cls-1, .cls-2, .cls-3 {
        stroke: #fff;
        stroke-miterlimit: 10;
      }

      .cls-1, .cls-3 {
        stroke-width: 3px;
      }

      .cls-2 {
        stroke-width: 4px;
      }

      .cls-2, .cls-3 {
        fill: none;
      }
    </style>
  </defs>
  <g id="Laag_2" data-name="Laag 2">
    <path class="cls-1" d="M12.7,81.13c1.04-1.2.69-7.04.93-8.61,1.07-7.1,2.79-14.13,5.17-20.91,6.08-17.33,17.21-33.47,33.63-42.39C75.39-3.24,104.09.37,125.78,13.74c12.57,7.75,23.2,18.69,30.33,31.64,6.37-8.35,12.8-16.77,20.66-23.72C195.69,4.92,222.31-2.06,246.96,3.24c14.41,3.1,27.77,10.58,36.71,22.47,14.6,19.41,17.26,45.37,15.9,68.88v.18s-.48,31.04-23.52,58.78c0,0-11.29,41.85-40.44,59.25,0,0-16.46,13.17-47.5,13.64,0,0-11.29,5.17-63.95,4.7-7-.06-21.21-2.08-20.84-11.64,0-.23.02-.47-.1-.66-.1-.15-.26-.24-.41-.32-2.48-1.35-4.77-3.24-6.41-5.55-1.79-2.54-2.74-5.76-2.11-8.8.08-.4.19-.84.04-1.22-.28-.71-1.6-1.3-2.21-1.75-1.37-.99-2.72-1.98-4.08-2.99-2.72-2.01-5.41-4.05-8.09-6.12-5.26-4.06-10.45-8.23-15.56-12.48-4.99-4.16-9.89-8.42-14.58-12.91-4.62-4.43-9.66-8.9-12.58-14.7-.59-1.16-1.09-2.4-1.97-3.36-2-2.19-5.75-3.32-8.22-5.05-3.16-2.21-6.16-4.65-8.96-7.3-7.99-7.6-14.97-17.72-16.39-28.88s4.29-18.52,11-26.26Z"/>
  </g>
  <g id="Laag_3" data-name="Laag 3">
    <path class="cls-3" d="M11.83,81.13s21.81,27.75,106.66,15.99c0,0-5.21,39.97,1.9,59.25-10.37,1.93-21.09,2.65-31.61,2.78-18.4.22-37.2-1.67-53.72-10.29"/>
  </g>
  <g id="Laag_4" data-name="Laag 4">
    <path class="cls-3" d="M276.79,152.65s-20.21,21.05-88.68,15.41c0,0,5.88,36.07.85,58.38"/>
  </g>
  <g id="Laag_5" data-name="Laag 5">
    <path class="cls-2" d="M102.33,219.12c5.42.38,10.84.77,16.27,1.01,5.95.25,11.91.34,17.85.1"/>
    <path class="cls-3" d="M92.9,200.53s12.16,9.26,48.76,4.13"/>
  </g>
  <g id="Laag_6" data-name="Laag 6">
    <path class="cls-3" d="M94.53,202.93c-1.47-2.21-2.99-5.43-2.1-8.11,2.17-6.52,15.67-3.68,20.55-3.31,9.69.72,19.74,2.14,29.41.59"/>
  </g>
  <g id="Laag_7" data-name="Laag 7">
    <path class="cls-3" d="M103.79,190.58c-4.2-1.61-15.63-5.24-12.54-11.68s13.61-8.08,27.05-7.83,31.56.61,31.56.61c0,0-8.44-6.24-17.01-8.44-4.22-1.08-8.99-3.26-11.46-6.99-1.35-2.03,2.95-6.28,4.36-6.96,3.12-1.51,6.76-.73,9.89.26,4.92,1.55,9.9,3.01,15.09,3.28,3.77.2,7.57-.2,11.33.22,3.99.45,7.28,2.31,10.79,4.09,5.69,2.88,11.23,6.49,15.4,11.33"/>
  </g>
  <g id="Laag_8" data-name="Laag 8">
    <path class="cls-3" d="M118.51,97.12c5.97-5.47,11.61-10.88,19.63-12.95,7.7-1.99,15.8-1.66,23.53-3.52,6.5-1.56,13.15-4.7,19.57-2.84,2.17.63,4.44,2.28,4.36,4.54-.06,1.51-1.15,2.75-2.2,3.83-1.53,1.59-3.11,3.15-4.92,4.41-5.48,3.83-13.02,4.98-16.93,10.41,11.74-.11,23.48-.05,35.22-.05,4.94.03,25.94,1.32,22.06,11.05-1.05,3.82-4.72,6.82-8.28,8.02-.13.07-.3.05-.27.15.28.18,4.87,2.48,6.26,6.2.98,2.24-.02,5.28-1.6,7.02-.45.62-1.08.97-1.17,1.52,1.13,2.19,2.86,9.67-3.66,13.52-.68.51-1.89.89-2.53,1.36,6.91,9.11-10.32,16.34-20.31,18.99"/>
  </g>
  <g id="Laag_9" data-name="Laag 9">
    <path class="cls-3" d="M210.16,120.15s-29.99,3.54-44.35,1.33"/>
  </g>
  <g id="Laag_10" data-name="Laag 10">
    <path class="cls-3" d="M213.63,134.74s-15,6.47-45.46,5.21"/>
    <path class="cls-3" d="M207.48,149.74s-14.21,2.68-32.52,2.05"/>
  </g>
</svg>